HIERARCHY
ROOT Pelvis
{
	OFFSET 0.000000 0.000000 0.000000
	CHANNELS 6 Xposition Yposition Zposition Zrotation Yrotation Xrotation 
	JOINT Left_hip
	{
		OFFSET 0.070241 -0.085575 -0.010474
		CHANNELS 3 Zrotation Yrotation Xrotation
		JOINT Left_knee
		{
			OFFSET 0.032125 -0.356873 -0.000555
			CHANNELS 3 Zrotation Yrotation Xrotation
			JOINT Left_ankle
			{
				OFFSET -0.010961 -0.370212 -0.042278
				CHANNELS 3 Zrotation Yrotation Xrotation
				JOINT Left_foot
				{
					OFFSET 0.023322 -0.052281 0.110104
					CHANNELS 3 Zrotation Yrotation Xrotation
					End Site
					{
						OFFSET 0.000000 0.000000 0.000000
					}
				}
			}
		}
	}
	JOINT Right_hip
	{
		OFFSET -0.068518 -0.084320 -0.007402
		CHANNELS 3 Zrotation Yrotation Xrotation
		JOINT Right_knee
		{
			OFFSET -0.037345 -0.364815 -0.003619
			CHANNELS 3 Zrotation Yrotation Xrotation
			JOINT Right_ankle
			{
				OFFSET 0.013394 -0.370006 -0.039954
				CHANNELS 3 Zrotation Yrotation Xrotation
				JOINT Right_foot
				{
					OFFSET -0.019600 -0.045455 0.113223
					CHANNELS 3 Zrotation Yrotation Xrotation
					End Site
					{
						OFFSET 0.000000 0.000000 0.000000
					}
				}
			}
		}
	}
	JOINT Spine1
	{
		OFFSET -0.002404 0.098129 -0.018169
		CHANNELS 3 Zrotation Yrotation Xrotation
		JOINT Spine2
		{
			OFFSET 0.003989 0.127209 -0.001742
			CHANNELS 3 Zrotation Yrotation Xrotation
			JOINT Spine3
			{
				OFFSET 0.001758 0.046641 0.023475
				CHANNELS 3 Zrotation Yrotation Xrotation
				JOINT Neck
				{
					OFFSET -0.003759 0.194901 -0.039982
					CHANNELS 3 Zrotation Yrotation Xrotation
					JOINT Head
					{
						OFFSET 0.003999 0.063756 0.047665
						CHANNELS 3 Zrotation Yrotation Xrotation
						End Site
						{
							OFFSET 0.000000 0.000000 0.000000
						}
					}
				}
				JOINT Left_collar
				{
					OFFSET 0.071816 0.109048 -0.028973
					CHANNELS 3 Zrotation Yrotation Xrotation
					JOINT Left_shoulder
					{
						OFFSET 0.084027 0.032269 -0.006525
						CHANNELS 3 Zrotation Yrotation Xrotation
						JOINT Left_elbow
						{
							OFFSET 0.243854 -0.013992 -0.025905
							CHANNELS 3 Zrotation Yrotation Xrotation
							JOINT Left_wrist
							{
								OFFSET 0.232156 0.008196 -0.000339
								CHANNELS 3 Zrotation Yrotation Xrotation
								JOINT Left_palm
								{
									OFFSET 0.075377 -0.009461 -0.012494
									CHANNELS 3 Zrotation Yrotation Xrotation
									End Site
									{
										OFFSET 0.000000 0.000000 0.000000
									}
								}
							}
						}
					}
				}
				JOINT Right_collar
				{
					OFFSET -0.073768 0.107001 -0.033755
					CHANNELS 3 Zrotation Yrotation Xrotation
					JOINT Right_shoulder
					{
						OFFSET -0.086837 0.032868 -0.009431
						CHANNELS 3 Zrotation Yrotation Xrotation
						JOINT Right_elbow
						{
							OFFSET -0.236446 -0.012544 -0.018747
							CHANNELS 3 Zrotation Yrotation Xrotation
							JOINT Right_wrist
							{
								OFFSET -0.236110 0.006124 -0.004327
								CHANNELS 3 Zrotation Yrotation Xrotation
								JOINT Right_palm
								{
									OFFSET -0.074800 -0.006875 -0.009610
									CHANNELS 3 Zrotation Yrotation Xrotation
									End Site
									{
										OFFSET 0.000000 0.000000 0.000000
									}
								}
							}
						}
					}
				}
			}
		}
	}
}
MOTION
Frames: 6
Frame Time: 0.100000
0.232063 -0.124157 0.728323 130.296938 73.787508 -54.768385 3.904905 3.870412 1.998652 -1.246545 0.560243 1.899542 3.563903 7.097126 -0.063577 -1.429586 8.908678 -14.808005 -4.169929 3.072142 -11.126350 2.010898 11.724878 16.602271 10.592433 -3.074026 -1.639348 -11.657706 6.910139 1.954554 -1.891862 0.712553 6.741200 0.992715 -2.904966 3.518511 -1.875078 1.289258 -1.465020 -5.878752 -14.632495 -2.831860 4.762283 -13.187210 2.368064 -13.649666 -5.367439 -2.695630 -49.282382 -3.857497 35.169111 -121.895885 -68.313244 138.185370 0.902831 -6.978532 -16.234470 -22.683461 -13.722294 -16.284578 18.601137 9.830709 0.391947 53.380768 -2.085921 30.619261 125.390062 73.747817 130.572449 -5.260876 5.540580 -29.957919 23.134545 10.001062 -8.758375 
0.253233 -0.121483 0.706987 138.353988 70.149474 -45.668513 3.601175 4.419149 0.197029 -0.758668 2.467010 0.157211 3.263224 7.437924 1.270548 -1.520792 9.270841 -13.775060 -3.122842 2.376079 -10.880463 0.981768 9.392442 11.730470 9.604976 -4.393682 -2.061124 -9.896292 6.527359 3.084179 -2.046535 1.143883 6.651781 0.921901 -2.990425 4.127360 -1.726694 1.334405 -1.987602 -5.900980 -12.537459 -2.520647 5.182992 -12.881957 1.213242 -12.950266 -6.387279 -2.779644 -46.984169 -4.616283 35.498045 -121.531936 -67.226918 136.906437 1.365202 -8.835678 -18.200223 -22.259113 -12.828125 -15.988140 18.258150 10.654748 0.665353 53.250831 -1.779157 30.721036 124.064426 73.699441 129.424881 -6.073093 6.190910 -31.213615 22.696891 9.504282 -8.575610 
0.272361 -0.118758 0.695794 142.621573 68.241126 -41.448253 3.492032 4.580460 -0.703971 -0.857965 1.897813 -0.688847 2.975788 8.232476 2.076321 -0.606657 9.926755 -13.947416 -2.002343 1.058615 -8.796492 1.165641 6.523690 17.801671 7.444634 -6.520676 -6.874358 -8.482002 6.053725 4.312797 -2.126444 1.537993 6.090867 0.291105 -2.585623 4.512479 -2.066758 1.580826 -2.410488 -5.928122 -11.487857 -1.131757 3.820354 -12.474755 1.836651 -12.902110 -6.621273 -3.476493 -46.733311 -6.363441 36.490995 -120.194167 -67.026023 136.277702 1.550676 -7.115840 -15.484037 -23.893421 -14.618116 -17.517094 18.047649 11.214139 0.470133 53.025624 -2.292805 31.452739 127.101277 74.439395 132.978063 -6.949218 5.197371 -31.887607 24.515259 10.894740 -9.224176 
0.294037 -0.115200 0.692289 144.561572 67.706315 -39.612786 3.682935 4.885806 -3.237403 -1.351836 1.077417 1.246905 2.381326 9.056267 2.286309 1.096574 9.705743 -15.052902 -1.859490 0.133360 -5.074114 2.161116 5.134615 26.059565 6.710936 -7.838910 -9.988569 -8.819019 6.070453 4.233440 -1.802016 1.919478 5.566594 -0.258413 -2.411005 3.962935 -2.272642 1.840297 -2.589992 -5.508868 -10.345478 -2.063472 2.564127 -9.821964 2.049572 -14.007567 -6.208845 -3.410262 -47.873727 -6.159281 36.420978 -119.691626 -67.618526 135.797100 1.128818 -4.786173 -14.226307 -25.825694 -16.581935 -18.339001 17.808909 11.157657 0.557236 52.497799 -3.071013 31.438084 129.672465 74.330453 134.726085 -6.485993 4.195100 -32.847040 26.433386 12.498225 -9.497878 
0.324302 -0.112551 0.694832 147.648601 66.877971 -36.027039 3.923910 5.023137 -6.410866 -1.334920 1.935304 2.073001 1.887366 9.345186 3.529956 1.757095 9.193491 -15.759057 -1.751440 -0.540116 -1.194505 3.265263 4.810202 27.691153 8.121499 -7.367103 -8.843632 -9.853705 6.807500 4.139107 -1.543979 2.903345 4.482806 -0.464429 -1.926076 3.425763 -2.267892 2.520535 -2.688625 -5.237103 -10.206619 -3.175015 1.938579 -9.100303 2.419136 -14.251673 -4.919049 -3.365162 -49.702035 -4.381095 35.678747 -120.803398 -68.332979 136.911242 0.769806 -3.268569 -14.378625 -26.257091 -17.456002 -18.659252 17.720212 11.338713 1.309637 52.177333 -2.414622 30.907815 128.791057 74.247923 133.513972 -5.893142 3.587262 -31.378407 26.673362 13.442608 -10.211246 
0.367522 -0.107835 0.703402 152.644022 65.982707 -29.782184 3.799384 4.570607 -10.413773 -0.522462 3.135038 1.315975 0.157433 8.956652 5.998748 2.880866 9.199928 -14.330990 -0.614532 -1.882812 2.038324 1.627753 2.363106 16.954471 7.054340 -8.566714 -9.533278 -9.077616 6.622405 5.614916 -1.181539 4.195439 3.763570 -1.223180 -1.534769 4.163935 -2.415456 2.999229 -3.426949 -5.746339 -10.993779 -3.497046 1.729913 -11.567903 0.508554 -14.820463 -3.597926 -3.500470 -50.061752 -2.614541 34.698199 -123.425923 -69.719076 141.114609 0.857601 -4.421534 -13.262357 -25.225065 -16.559586 -17.987016 18.109612 12.693378 1.867086 52.270312 0.168546 30.255226 124.891719 75.245144 131.192643 -5.146279 4.844607 -29.837084 24.888483 13.186771 -9.952905 
